<svg xmlns="http://www.w3.org/2000/svg" viewBox="0 0 512 512" width="512" height="512" role="img" aria-label="Redesigned Malsori icon">
  <title>Redesigned Malsori icon</title>
  <g transform="scale(0.174)">
    <circle cx="716.8" cy="1474.161" r="512" fill="#dc143c" />
    <g fill="none" stroke="#ffffff" stroke-linecap="round" stroke-linejoin="round">
      <path d="M 271.701 1593.425 L 270.846 1590.185 L 270.014 1586.938 L 269.206 1583.686 L 268.421 1580.429 L 267.66 1577.165 L 266.923 1573.896 L 266.209 1570.622 L 265.52 1567.343 L 264.854 1564.058 L 264.212 1560.769 L 263.594 1557.476 L 263.001 1554.178 L 262.431 1550.876 L 261.885 1547.569 L 261.363 1544.259 L 260.865 1540.945 L 260.392 1537.628 L 259.942 1534.307 L 259.517 1530.983 L 259.116 1527.656 L 258.739 1524.327 L 258.386 1520.994 L 258.058 1517.659 L 257.753 1514.322 L 257.474 1510.983 L 257.218 1507.642 L 256.987 1504.298 L 256.78 1500.954 L 256.597 1497.608 L 256.439 1494.261 L 256.305 1490.912 L 256.195 1487.563 L 256.11 1484.213 L 256.049 1480.863 L 256.012 1477.512 L 256 1474.161 L 256.012 1470.81 L 256.049 1467.459 L 256.11 1464.108 L 256.195 1460.758 L 256.305 1457.409 L 256.439 1454.061 L 256.597 1450.714 L 256.78 1447.368 L 256.987 1444.023 L 257.218 1440.68 L 257.474 1437.339 L 257.753 1433.999 L 258.058 1430.662 L 258.386 1427.327 L 258.739 1423.995 L 259.116 1420.665 L 259.517 1417.338 L 259.942 1414.014 L 260.392 1410.694 L 260.865 1407.376 L 261.363 1404.062 L 261.885 1400.752 L 262.431 1397.446 L 263.001 1394.144 L 263.594 1390.846 L 264.212 1387.552 L 264.854 1384.263 L 265.52 1380.979 L 266.209 1377.7 L 266.923 1374.425 L 267.66 1371.156 L 268.421 1367.893 L 269.206 1364.635 L 270.014 1361.383 L 270.846 1358.137 L 271.701 1354.897" stroke-width="71.68" />
      <path d="M 370.626 1670.095 L 372.735 1664.923 L 374.788 1659.729 L 376.784 1654.513 L 378.723 1649.275 L 380.604 1644.016 L 382.428 1638.738 L 384.195 1633.439 L 385.903 1628.122 L 387.553 1622.786 L 389.146 1617.433 L 390.679 1612.063 L 392.154 1606.676 L 393.57 1601.274 L 394.927 1595.856 L 396.225 1590.424 L 397.464 1584.978 L 398.643 1579.519 L 399.762 1574.047 L 400.822 1568.563 L 401.822 1563.069 L 402.761 1557.563 L 403.641 1552.048 L 404.461 1546.523 L 405.22 1540.99 L 405.919 1535.449 L 406.557 1529.901 L 407.135 1524.345 L 407.652 1518.784 L 408.108 1513.218 L 408.504 1507.647 L 408.839 1502.072 L 409.113 1496.494 L 409.326 1490.913 L 409.478 1485.33 L 409.57 1479.746 L 409.6 1474.161 L 409.57 1468.576 L 409.478 1462.991 L 409.326 1457.409 L 409.113 1451.828 L 408.839 1446.249 L 408.504 1440.674 L 408.108 1435.103 L 407.652 1429.537 L 407.135 1423.976 L 406.557 1418.421 L 405.919 1412.872 L 405.22 1407.331 L 404.461 1401.798 L 403.641 1396.274 L 402.761 1390.758 L 401.822 1385.253 L 400.822 1379.758 L 399.762 1374.274 L 398.643 1368.803 L 397.464 1363.344 L 396.225 1357.898 L 394.927 1352.466 L 393.57 1347.048 L 392.154 1341.645 L 390.679 1336.259 L 389.146 1330.888 L 387.553 1325.535 L 385.903 1320.199 L 384.195 1314.882 L 382.428 1309.584 L 380.604 1304.305 L 378.723 1299.046 L 376.784 1293.809 L 374.788 1288.592 L 372.735 1283.398 L 370.626 1278.227" stroke-width="56.32" stroke-opacity="0.95" />
      <path d="M 271.701 1593.425 L 370.626 1670.095" stroke-width="56.32" />
      <path d="M 271.701 1354.897 L 370.626 1278.227" stroke-width="56.32" />
      <path d="M 456.893 1593.685 L 457.589 1590.75 L 458.267 1587.811 L 458.928 1584.869 L 459.571 1581.922 L 460.197 1578.972 L 460.806 1576.018 L 461.397 1573.061 L 461.971 1570.1 L 462.527 1567.136 L 463.066 1564.168 L 463.588 1561.198 L 464.092 1558.224 L 464.578 1555.248 L 465.047 1552.269 L 465.498 1549.287 L 465.932 1546.302 L 466.348 1543.315 L 466.747 1540.326 L 467.128 1537.334 L 467.491 1534.34 L 467.837 1531.344 L 468.165 1528.346 L 468.475 1525.346 L 468.768 1522.344 L 469.043 1519.341 L 469.3 1516.336 L 469.54 1513.329 L 469.761 1510.322 L 469.966 1507.313 L 470.152 1504.303 L 470.321 1501.291 L 470.472 1498.279 L 470.605 1495.266 L 470.72 1492.253 L 470.818 1489.238 L 470.898 1486.223 L 470.96 1483.208 L 471.004 1480.192 L 471.031 1477.177 L 471.04 1474.161 L 471.031 1471.145 L 471.004 1468.129 L 470.96 1465.113 L 470.898 1462.098 L 470.818 1459.083 L 470.72 1456.069 L 470.605 1453.055 L 470.472 1450.042 L 470.321 1447.03 L 470.152 1444.019 L 469.966 1441.009 L 469.761 1438 L 469.54 1434.992 L 469.3 1431.986 L 469.043 1428.981 L 468.768 1425.977 L 468.475 1422.976 L 468.165 1419.976 L 467.837 1416.978 L 467.491 1413.982 L 467.128 1410.988 L 466.747 1407.996 L 466.348 1405.006 L 465.932 1402.019 L 465.498 1399.035 L 465.047 1396.053 L 464.578 1393.073 L 464.092 1390.097 L 463.588 1387.124 L 463.066 1384.153 L 462.527 1381.186 L 461.971 1378.221 L 461.397 1375.261 L 460.806 1372.303 L 460.197 1369.349 L 459.571 1366.399 L 458.928 1363.453 L 458.267 1360.51 L 457.589 1357.571 L 456.893 1354.637" stroke-width="56.32" stroke-opacity="0.85" />
      <path d="M 505.844 1637.15 L 507.148 1633.214 L 508.421 1629.267 L 509.661 1625.31 L 510.869 1621.343 L 512.045 1617.366 L 513.189 1613.38 L 514.3 1609.385 L 515.379 1605.381 L 516.426 1601.368 L 517.44 1597.347 L 518.421 1593.318 L 519.37 1589.281 L 520.286 1585.237 L 521.169 1581.185 L 522.02 1577.126 L 522.837 1573.061 L 523.622 1568.989 L 524.373 1564.911 L 525.092 1560.826 L 525.777 1556.737 L 526.429 1552.641 L 527.048 1548.541 L 527.634 1544.436 L 528.187 1540.326 L 528.706 1536.211 L 529.192 1532.093 L 529.644 1527.971 L 530.064 1523.845 L 530.449 1519.716 L 530.802 1515.584 L 531.12 1511.45 L 531.406 1507.313 L 531.657 1503.173 L 531.876 1499.032 L 532.06 1494.89 L 532.211 1490.745 L 532.329 1486.6 L 532.413 1482.454 L 532.463 1478.308 L 532.48 1474.161 L 532.463 1470.014 L 532.413 1465.867 L 532.329 1461.721 L 532.211 1457.576 L 532.06 1453.432 L 531.876 1449.289 L 531.657 1445.148 L 531.406 1441.009 L 531.12 1436.872 L 530.802 1432.737 L 530.449 1428.605 L 530.064 1424.476 L 529.644 1420.351 L 529.192 1416.228 L 528.706 1412.11 L 528.187 1407.996 L 527.634 1403.886 L 527.048 1399.781 L 526.429 1395.68 L 525.777 1391.585 L 525.092 1387.495 L 524.373 1383.411 L 523.622 1379.333 L 522.837 1375.261 L 522.02 1371.195 L 521.169 1367.136 L 520.286 1363.085 L 519.37 1359.04 L 518.421 1355.003 L 517.44 1350.974 L 516.426 1346.953 L 515.379 1342.941 L 514.3 1338.937 L 513.189 1334.941 L 512.045 1330.955 L 510.869 1326.979 L 509.661 1323.012 L 508.421 1319.055 L 507.148 1315.108 L 505.844 1311.171" stroke-width="56.32" stroke-opacity="0.85" />
      <path d="M 538.115 1706.604 L 540.822 1701.213 L 543.465 1695.791 L 546.044 1690.339 L 548.558 1684.856 L 551.008 1679.344 L 553.393 1673.804 L 555.712 1668.236 L 557.966 1662.64 L 560.153 1657.019 L 562.274 1651.373 L 564.328 1645.701 L 566.316 1640.006 L 568.236 1634.288 L 570.089 1628.548 L 571.873 1622.786 L 573.59 1617.004 L 575.239 1611.202 L 576.819 1605.381 L 578.331 1599.542 L 579.773 1593.685 L 581.147 1587.811 L 582.451 1581.922 L 583.686 1576.018 L 584.851 1570.1 L 585.946 1564.168 L 586.972 1558.224 L 587.927 1552.269 L 588.812 1546.302 L 589.627 1540.326 L 590.371 1534.34 L 591.045 1528.346 L 591.648 1522.344 L 592.18 1516.336 L 592.641 1510.322 L 593.032 1504.303 L 593.352 1498.279 L 593.6 1492.253 L 593.778 1486.223 L 593.884 1480.192 L 593.92 1474.161 L 593.884 1468.129 L 593.778 1462.098 L 593.6 1456.069 L 593.352 1450.042 L 593.032 1444.019 L 592.641 1438 L 592.18 1431.986 L 591.648 1425.977 L 591.045 1419.976 L 590.371 1413.982 L 589.627 1407.996 L 588.812 1402.019 L 587.927 1396.053 L 586.972 1390.097 L 585.946 1384.153 L 584.851 1378.221 L 583.686 1372.303 L 582.451 1366.399 L 581.147 1360.51 L 579.773 1354.637 L 578.331 1348.78 L 576.819 1342.941 L 575.239 1337.119 L 573.59 1331.317 L 571.873 1325.535 L 570.089 1319.773 L 568.236 1314.033 L 566.316 1308.315 L 564.328 1302.62 L 562.274 1296.949 L 560.153 1291.302 L 557.966 1285.681 L 555.712 1280.086 L 553.393 1274.518 L 551.008 1268.977 L 548.558 1263.465 L 546.044 1257.983 L 543.465 1252.53 L 540.822 1247.108 L 538.115 1241.718" stroke-width="56.32" stroke-opacity="0.85" />
      <path d="M 641.213 1593.685 L 641.909 1590.75 L 642.587 1587.811 L 643.248 1584.869 L 643.891 1581.922 L 644.517 1578.972 L 645.126 1576.018 L 645.717 1573.061 L 646.291 1570.1 L 646.847 1567.136 L 647.386 1564.168 L 647.908 1561.198 L 648.412 1558.224 L 648.898 1555.248 L 649.367 1552.269 L 649.818 1549.287 L 650.252 1546.302 L 650.668 1543.315 L 651.067 1540.326 L 651.448 1537.334 L 651.811 1534.34 L 652.157 1531.344 L 652.485 1528.346 L 652.795 1525.346 L 653.088 1522.344 L 653.363 1519.341 L 653.62 1516.336 L 653.86 1513.329 L 654.081 1510.322 L 654.286 1507.313 L 654.472 1504.303 L 654.641 1501.291 L 654.792 1498.279 L 654.925 1495.266 L 655.04 1492.253 L 655.138 1489.238 L 655.218 1486.223 L 655.28 1483.208 L 655.324 1480.192 L 655.351 1477.177 L 655.36 1474.161 L 655.351 1471.145 L 655.324 1468.129 L 655.28 1465.113 L 655.218 1462.098 L 655.138 1459.083 L 655.04 1456.069 L 654.925 1453.055 L 654.792 1450.042 L 654.641 1447.03 L 654.472 1444.019 L 654.286 1441.009 L 654.081 1438 L 653.86 1434.992 L 653.62 1431.986 L 653.363 1428.981 L 653.088 1425.977 L 652.795 1422.976 L 652.485 1419.976 L 652.157 1416.978 L 651.811 1413.982 L 651.448 1410.988 L 651.067 1407.996 L 650.668 1405.006 L 650.252 1402.019 L 649.818 1399.035 L 649.367 1396.053 L 648.898 1393.073 L 648.412 1390.097 L 647.908 1387.124 L 647.386 1384.153 L 646.847 1381.186 L 646.291 1378.221 L 645.717 1375.261 L 645.126 1372.303 L 644.517 1369.349 L 643.891 1366.399 L 643.248 1363.453 L 642.587 1360.51 L 641.909 1357.571 L 641.213 1354.637" stroke-width="56.32" stroke-opacity="0.85" />
      <path d="M 1082.377 1193.643 L 1079.296 1189.672 L 1076.171 1185.735 L 1073.003 1181.832 L 1069.793 1177.964 L 1066.541 1174.131 L 1063.248 1170.334 L 1059.913 1166.573 L 1056.537 1162.849 L 1053.121 1159.161 L 1049.665 1155.512 L 1046.17 1151.9 L 1042.635 1148.326 L 1039.061 1144.791 L 1035.449 1141.295 L 1031.799 1137.839 L 1028.112 1134.423 L 1024.388 1131.048 L 1020.627 1127.713 L 1016.829 1124.419 L 1012.997 1121.167 L 1009.128 1117.958 L 1005.226 1114.79 L 1001.288 1111.665 L 997.317 1108.584" stroke-width="56.32" stroke-opacity="0.9" />
      <path d="M 1175.262 1625.412 L 1173.446 1607.633 L 1171.113 1589.915 L 1168.266 1572.271 L 1164.907 1554.718 L 1161.039 1537.27 L 1156.665 1519.942 L 1151.789 1502.749 L 1146.415 1485.704 L 1140.547 1468.824 L 1134.191 1452.12 L 1127.352 1435.609 L 1120.036 1419.304 L 1112.248 1403.219 L 1103.996 1387.366 L 1095.286 1371.761 L 1086.126 1356.415 L 1076.524 1341.342 L 1066.487 1326.555 L 1056.024 1312.066 L 1045.145 1297.888 L 1033.858 1284.032 L 1022.172 1270.51 L 1010.098 1257.334 L 997.646 1244.514 L 984.827 1232.062 L 971.651 1219.989 L 958.129 1208.303 L 944.273 1197.016 L 930.094 1186.136 L 915.605 1175.674 L 900.818 1165.637 L 885.746 1156.035 L 870.4 1146.875 L 854.794 1138.165 L 838.942 1129.913 L 822.857 1122.125 L 806.551 1114.809 L 790.04 1107.97 L 773.337 1101.614 L 756.456 1095.746 L 739.412 1090.372 L 722.218 1085.496 L 704.89 1081.122 L 687.442 1077.254 L 669.889 1073.895 L 652.246 1071.048 L 634.527 1068.715 L 616.748 1066.899" stroke-width="56.32" stroke-opacity="0.9" />
      <path d="M 739.177 1226.262 L 743.045 1243.711 L 747.217 1261.089 L 751.692 1278.391 L 756.468 1295.613 L 761.544 1312.749 L 766.918 1329.794 L 772.589 1346.743 L 778.555 1363.589 L 784.814 1380.329 L 791.364 1396.958 L 798.203 1413.469 L 805.329 1429.859 L 812.741 1446.122 L 820.435 1462.253 L 828.409 1478.247 L 836.662 1494.1 L 845.189 1509.806 L 853.99 1525.361 L 863.061 1540.76 L 872.399 1555.998 L 882.001 1571.071 L 891.866 1585.974 L 901.988 1600.703 L 912.367 1615.253 L 922.997 1629.619 L 933.877 1643.798 L 945.003 1657.785 L 956.37 1671.575 L 967.977 1685.165 L 979.82 1698.55 L 991.894 1711.727 L 1004.196 1724.691 L 1016.723 1737.438 L 1029.47 1749.965 L 1042.434 1762.267 L 1055.61 1774.341" stroke-width="56.32" stroke-opacity="0.9" />
      <path d="M 535.161 1890.22 L 548.613 1883.828 L 561.97 1877.241 L 575.231 1870.46 L 588.391 1863.487 L 601.448 1856.323 L 614.4 1848.971 L 627.244 1841.43 L 639.976 1833.704 L 652.595 1825.794 L 665.097 1817.7 L 677.481 1809.426 L 689.742 1800.972 L 701.88 1792.341 L 713.89 1783.535 L 725.772 1774.555 L 737.521 1765.402 L 749.136 1756.08 L 760.615 1746.59 L 771.954 1736.934 L 783.151 1727.114 L 794.204 1717.133 L 805.111 1706.991 L 815.87 1696.692 L 826.477 1686.238 L 836.932 1675.631 L 847.231 1664.872 L 857.372 1653.965 L 867.354 1642.912 L 877.174 1631.714 L 886.83 1620.375 L 896.32 1608.897 L 905.642 1597.282 L 914.794 1585.532 L 923.774 1573.651 L 932.581 1561.64 L 941.212 1549.503 L 949.665 1537.241 L 957.94 1524.858 L 966.033 1512.356 L 973.943 1499.737 L 981.67 1487.004 L 989.21 1474.161 L 996.563 1461.209 L 1003.726 1448.151 L 1010.699 1434.991 L 1017.48 1421.731 L 1024.067 1408.374 L 1030.459 1394.922" stroke-width="56.32" stroke-opacity="0.9" />
    </g>
  </g>
</svg>