<svg xmlns="http://www.w3.org/2000/svg" viewBox="0 0 64 64" role="img" aria-label="Malsori listening ear icon">
  <title>Malsori listening ear icon</title>
  <circle cx="32" cy="32" r="30" fill="#dc143c" />
  <g fill="none" stroke-linecap="round" stroke-linejoin="round">
    <path
      d="M25 10.5C14.2 10.5 6.2 20.3 6.2 32C6.2 40.3 10 46.4 13.2 50.4C17 55 18 57.8 18 59.4C18 61 19 62 21.2 62C25.8 62 29.4 57.5 29.4 52.6C29.4 47.8 26.7 44.5 24.5 42.6C21.7 40.2 20.2 38.9 20.2 35.8C20.2 31.4 23.6 28.4 28 28.4C31.4 28.4 34 30.6 34 33.8C34 36.1 33 38.5 31.2 39.5C29.9 40.3 28.2 40.4 27 39.6C26 39 25.3 37.7 25.3 36.4C25.3 35.4 25.6 34.5 26.2 33.7"
      stroke="#fff"
      stroke-width="3.4"
    />
    <path
      d="M28.6 36.4C24.7 36.4 21.6 39.6 21.6 44C21.6 47.9 24.1 50.8 27.4 51.5C30.8 52.2 33 54.8 33 57.8C33 60.8 30.4 63.2 27.2 63.2C22.8 63.2 20 59.9 20 55.4C20 51.4 21.3 48.2 23.7 45.8"
      stroke="#fff7f7"
      stroke-width="2.4"
    />
    <path
      d="M30.6 43.8C28.8 42.9 27.6 41.1 27.6 39.1C27.6 36.3 29.8 34.1 32.6 34.1C35.4 34.1 37.6 36.3 37.6 39.1C37.6 41.7 36 43.8 33.6 44.4"
      stroke="#ffecec"
      stroke-width="2"
    />
    <path
      d="M43 19.4C48.4 22.5 52 28.2 52 34.4C52 40.6 48.4 46.3 43 49.4"
      stroke="#fff"
      stroke-width="3"
    />
    <path
      d="M48.4 14.6C55.7 18.8 60.2 26.3 60.2 34.8C60.2 43.3 55.7 50.8 48.4 55"
      stroke="#fff6f6"
      stroke-width="2.4"
    />
  </g>
</svg>
